<svg xmlns="http://www.w3.org/2000/svg"  viewBox="0 0 16 16" width="16px" height="16px"><path d="M 7 0 L 6.6835938 2.1484375 C 6.0026651 2.3010401 5.3666108 2.571256 4.7949219 2.9335938 L 3.0507812 1.6367188 L 1.6367188 3.0507812 L 2.9335938 4.7949219 C 2.571256 5.3666108 2.3010401 6.0026651 2.1484375 6.6835938 L 0 7 L 0 9 L 2.1484375 9.3164062 C 2.3010401 9.9973349 2.571256 10.633389 2.9335938 11.205078 L 1.6367188 12.949219 L 3.0507812 14.363281 L 4.7949219 13.066406 C 5.3666108 13.428744 6.0026651 13.69896 6.6835938 13.851562 L 7 16 L 9 16 L 9.3164062 13.851562 C 9.9973349 13.69896 10.633389 13.428744 11.205078 13.066406 L 12.949219 14.363281 L 14.363281 12.949219 L 13.066406 11.205078 C 13.428744 10.633389 13.69896 9.9973349 13.851562 9.3164062 L 16 9 L 16 7 L 13.851562 6.6835938 C 13.69896 6.0026651 13.428744 5.3666108 13.066406 4.7949219 L 14.363281 3.0507812 L 12.949219 1.6367188 L 11.205078 2.9335938 C 10.633389 2.571256 9.9973349 2.3010401 9.3164062 2.1484375 L 9 0 L 7 0 z M 8 6 C 9.105 6 10 6.895 10 8 C 10 9.105 9.105 10 8 10 C 6.895 10 6 9.105 6 8 C 6 6.895 6.895 6 8 6 z"/></svg>